<?xml version="1.0" standalone="no"?>
<!DOCTYPE svg PUBLIC "-//W3C//DTD SVG 20010904//EN"
 "http://www.w3.org/TR/2001/REC-SVG-20010904/DTD/svg10.dtd">
<svg version="1.0" xmlns="http://www.w3.org/2000/svg"
 width="800.000000pt" height="800.000000pt" viewBox="0 0 800.000000 800.000000"
 preserveAspectRatio="xMidYMid meet">
<metadata>
Created by potrace 1.11, written by Peter Selinger 2001-2013
</metadata>
<g transform="translate(0.000000,800.000000) scale(0.100000,-0.100000)"
fill="#000000" stroke="none">
<path d="M3945 7061 c-53 -16 -63 -23 -85 -62 -34 -58 -58 -61 -124 -15 -61
42 -93 45 -167 16 l-52 -21 -63 21 c-74 24 -84 24 -84 7 0 -7 -38 -45 -84 -84
-80 -69 -86 -72 -160 -83 -70 -12 -121 -10 -229 6 -36 6 -42 3 -87 -41 -43
-42 -51 -56 -65 -121 l-16 -73 -72 -29 c-40 -17 -104 -35 -143 -42 l-71 -13
-22 -67 c-31 -97 -40 -101 -80 -33 l-33 55 -44 -45 c-24 -25 -57 -54 -74 -64
-18 -10 -51 -45 -75 -78 -39 -55 -42 -64 -38 -110 3 -43 0 -54 -22 -79 -20
-21 -29 -26 -38 -17 -27 27 -74 11 -149 -51 -70 -58 -92 -111 -86 -206 3 -42
8 -84 12 -93 6 -13 -1 -15 -43 -15 -73 1 -75 -5 -52 -119 17 -85 28 -112 83
-203 35 -57 89 -135 120 -173 32 -37 80 -112 107 -166 l49 -99 -9 -84 c-5 -47
-7 -197 -3 -335 6 -256 25 -419 85 -725 34 -176 35 -177 83 -205 23 -14 50
-25 59 -25 13 0 16 -12 14 -71 l-2 -72 38 -13 c47 -16 45 -20 55 121 l7 110
38 19 c21 10 40 16 43 13 3 -2 14 -38 26 -78 41 -146 90 -208 192 -243 83 -27
306 -39 501 -26 282 19 399 47 488 116 46 36 74 86 201 356 47 100 76 121 173
128 70 5 71 5 92 -25 11 -16 35 -61 53 -100 32 -68 33 -74 32 -196 0 -93 -5
-143 -19 -188 l-18 -61 35 -53 c35 -52 35 -53 22 -102 -25 -93 -26 -101 -9
-141 l16 -39 -28 -23 c-69 -58 -113 -103 -113 -117 0 -11 17 -15 73 -17 l72
-3 -35 -22 c-19 -12 -46 -30 -58 -40 -17 -11 -43 -17 -86 -17 -51 0 -77 7
-138 36 -71 34 -76 35 -104 20 -16 -8 -41 -27 -57 -42 -38 -39 -155 -106 -197
-114 -71 -14 -136 -40 -170 -67 -19 -15 -44 -29 -55 -31 -15 -2 -21 -12 -23
-38 -1 -19 -9 -60 -16 -90 -8 -30 -17 -85 -20 -122 -6 -60 -4 -69 17 -93 28
-33 68 -28 65 8 -3 30 27 72 68 98 19 11 34 27 34 34 0 17 104 97 168 130 157
81 264 119 331 119 59 -1 81 -17 81 -61 0 -28 -3 -28 45 -3 22 11 47 20 56 20
9 0 33 7 52 15 20 8 42 13 49 10 7 -2 32 -9 56 -15 37 -9 45 -17 68 -62 l26
-52 -21 -17 c-25 -20 -160 -54 -281 -69 -47 -6 -110 -17 -140 -25 -54 -13 -54
-13 90 -14 80 0 189 4 242 9 115 11 386 15 409 5 27 -10 12 -45 -45 -103 -52
-54 -140 -112 -170 -112 -9 0 -39 -11 -66 -25 -41 -21 -64 -25 -133 -25 -73 0
-91 -4 -132 -26 l-47 -27 -56 17 c-33 10 -80 16 -112 14 -54 -3 -55 -4 -70
-43 -8 -22 -25 -57 -37 -76 -13 -20 -23 -43 -23 -50 0 -17 159 -69 208 -69 21
0 32 -5 32 -15 0 -8 10 -20 22 -26 18 -10 24 -8 35 7 7 10 13 24 13 31 0 7 9
17 20 23 16 9 22 6 36 -15 29 -44 114 -21 114 32 l0 24 44 -31 c25 -16 49 -30
55 -30 24 0 9 30 -31 63 -38 32 -40 35 -22 45 15 8 37 -2 118 -53 85 -55 107
-64 162 -70 57 -6 65 -9 70 -32 7 -25 -2 -128 -12 -144 -3 -5 -25 -9 -48 -9
-38 0 -48 -5 -78 -37 -18 -21 -44 -55 -57 -77 -13 -21 -38 -44 -55 -51 -28
-12 -34 -11 -75 18 l-44 30 -19 -23 c-10 -12 -23 -42 -29 -66 -6 -24 -18 -49
-27 -56 -13 -11 -14 -10 -9 7 16 54 28 107 25 110 -2 2 -15 6 -30 10 -22 6
-29 2 -40 -20 l-14 -26 -33 46 c-18 25 -37 45 -42 45 -25 0 -116 -57 -170
-105 -50 -47 -70 -58 -99 -57 -3 0 -60 5 -127 11 -116 10 -127 14 -235 64 -75
35 -131 70 -165 101 -58 53 -246 196 -251 191 -8 -7 59 -94 162 -209 l105
-119 183 -70 c131 -50 230 -80 348 -106 l165 -36 3 -41 c3 -40 4 -41 55 -57
67 -22 204 -114 297 -199 61 -58 69 -68 49 -68 -13 0 -79 -25 -146 -57 l-123
-57 -16 -48 c-17 -53 -12 -71 38 -118 22 -20 30 -20 758 -20 l735 0 -3 248
c-4 328 -21 492 -66 657 -20 71 -36 150 -36 175 0 25 -6 95 -14 155 -8 61 -19
187 -26 280 l-11 170 33 124 33 124 88 18 c123 25 181 72 294 239 36 53 38 61
69 275 18 121 39 240 46 265 9 29 13 107 13 225 l0 180 -38 59 -38 58 -64 -4
c-53 -3 -73 -10 -111 -36 l-46 -33 8 43 c5 24 7 66 6 93 -2 28 7 204 19 392
l22 342 -27 148 c-28 152 -115 498 -141 561 -24 56 -20 70 30 94 25 12 45 25
45 28 0 4 -18 15 -40 25 -40 18 -45 29 -40 80 3 35 38 104 75 149 36 44 85
150 85 184 0 9 -34 51 -74 91 l-75 74 6 63 6 63 -58 60 c-43 45 -79 71 -141
101 -66 32 -90 49 -112 82 -15 23 -46 54 -70 69 -41 26 -45 26 -92 14 -28 -7
-50 -9 -50 -4 0 5 -12 27 -26 48 -18 29 -35 41 -60 45 -29 6 -34 11 -34 36 0
25 -6 30 -47 44 -56 19 -114 21 -132 4 -11 -11 -13 -10 -7 0 4 7 30 24 57 38
48 24 50 27 47 61 -2 20 -10 41 -19 46 -26 16 -124 -10 -162 -42 -18 -15 -48
-37 -68 -49 l-35 -21 -38 69 c-53 99 -138 174 -213 189 -108 21 -134 16 -210
-45 -23 -19 -46 -34 -51 -34 -5 0 -27 20 -50 45 -22 25 -44 45 -49 45 -4 0
-16 -14 -25 -30 -31 -54 -50 -30 -27 34 8 22 8 39 0 59 -12 31 -8 31 -86 8z
m-90 -1581 c33 -6 191 -11 352 -11 l292 0 98 -43 98 -42 14 -65 c8 -36 27 -83
43 -107 16 -23 30 -50 30 -60 1 -9 -33 -74 -75 -143 -43 -70 -77 -133 -77
-140 0 -8 13 -54 28 -104 32 -102 40 -109 143 -128 47 -9 69 -20 111 -58 l52
-46 -94 -6 c-98 -7 -275 -38 -324 -57 -16 -6 -40 -19 -54 -30 -14 -12 -45 -25
-69 -31 -37 -10 -43 -15 -43 -38 0 -15 -7 -48 -16 -73 l-15 -46 -97 -28 c-119
-34 -301 -44 -421 -23 -67 12 -88 22 -183 85 l-108 71 -165 33 c-202 40 -267
38 -433 -14 -118 -36 -173 -64 -232 -115 l-35 -31 40 5 c147 16 155 16 155 -4
0 -21 -59 -47 -130 -57 -43 -6 -48 -10 -84 -68 -35 -56 -39 -69 -44 -148 -3
-64 -2 -88 7 -88 30 0 96 47 187 132 161 153 177 159 306 132 90 -19 229 -21
331 -4 34 5 114 13 177 16 110 6 117 5 150 -18 46 -31 60 -61 60 -129 0 -101
-69 -331 -124 -414 -89 -135 -266 -182 -696 -186 -282 -3 -318 8 -410 123 -21
26 -48 77 -60 113 -12 36 -27 65 -34 65 -25 0 -46 37 -60 105 -20 95 -42 145
-78 175 -28 24 -29 28 -26 95 3 65 5 71 31 83 25 12 27 17 27 76 0 51 7 79 33
137 19 41 46 112 62 159 18 56 49 118 90 180 58 89 166 307 181 364 4 16 39
52 91 95 71 57 97 72 161 91 42 12 160 58 262 102 102 45 221 91 265 104 89
25 211 30 310 14z m1288 -1302 c59 -44 106 -83 104 -84 -2 -2 -50 -12 -107
-24 -98 -19 -110 -19 -196 -5 -86 14 -97 13 -183 -5 -93 -21 -172 -57 -244
-113 -44 -34 -165 -84 -217 -89 l-35 -3 -19 99 -20 99 25 46 c23 43 28 47 104
72 44 15 109 33 144 39 l63 13 24 -31 24 -30 84 19 c46 10 119 32 162 48 47
17 100 30 130 30 49 1 55 -2 157 -81z m-443 -287 c0 -31 5 -53 15 -61 31 -26
13 -27 -65 -7 -69 18 -80 24 -80 43 0 17 13 27 58 47 31 14 60 26 65 26 4 1 7
-21 7 -48z m-140 -80 c0 -31 139 -106 235 -127 110 -24 271 -8 369 35 l65 30
29 -44 c28 -42 91 -210 82 -218 -3 -3 -47 -12 -99 -21 -65 -11 -156 -16 -292
-16 l-198 0 -101 148 c-55 81 -116 166 -136 190 l-37 42 42 0 c34 0 41 -3 41
-19z m704 -493 c-1 -51 -7 -121 -14 -155 -12 -61 -14 -64 -141 -189 -70 -70
-132 -130 -137 -133 -4 -3 -28 -32 -52 -65 l-44 -58 21 -39 c12 -22 20 -39 18
-39 -21 0 -160 60 -199 85 -35 23 -73 37 -120 45 -47 7 -79 19 -99 36 l-29 24
36 15 c20 9 69 22 109 30 59 13 77 21 98 47 26 31 26 33 12 75 -8 24 -38 78
-66 121 -67 103 -119 209 -115 239 3 23 4 23 75 -21 87 -55 162 -78 218 -67
l40 7 -31 17 c-17 9 -67 30 -109 47 -151 60 -154 59 95 53 124 -2 266 0 315 5
50 5 97 10 105 11 12 1 15 -15 14 -91z"/>
<path d="M3114 3947 c-49 -17 -179 -104 -216 -145 -14 -16 -41 -33 -60 -38
l-33 -7 30 -13 c17 -7 46 -13 66 -14 20 0 71 -7 114 -16 42 -9 78 -14 81 -12
2 3 -37 15 -86 27 l-90 24 38 36 c38 37 96 81 106 81 3 0 6 -15 6 -33 0 -18
11 -49 25 -70 22 -32 31 -37 63 -37 69 0 156 19 175 39 26 26 28 92 3 120 -18
20 -18 20 20 10 75 -19 93 -30 104 -64 6 -17 8 -39 4 -48 -5 -14 1 -15 48 -10
46 5 67 15 68 33 0 3 -35 30 -77 61 -86 61 -132 76 -266 84 -54 3 -96 0 -123
-8z"/>
<path d="M3350 3751 c-30 -10 -72 -26 -92 -35 -21 -9 -61 -17 -90 -17 l-53 -1
59 -9 c55 -8 64 -6 150 30 50 21 100 41 111 44 16 4 15 5 -5 5 -14 1 -50 -7
-80 -17z"/>
<path d="M3785 3014 c-45 -11 -75 -27 -75 -40 0 -20 29 -24 100 -13 36 5 81
12 100 15 l35 5 -28 -25 c-30 -28 -24 -33 18 -14 31 14 32 39 3 57 -22 14
-119 23 -153 15z"/>
<path d="M3710 2461 c-41 -5 -121 -44 -161 -78 -9 -8 -20 -13 -25 -12 -17 4
-102 -41 -108 -57 -12 -32 -5 -33 52 -8 86 38 235 68 385 77 15 1 27 4 27 7 0
3 -17 23 -38 43 -39 38 -45 39 -132 28z"/>
</g>
</svg>
